PathFileType	4	(X/Y/Z)	4_coords_data.trc
DataRate	CameraRate	NumFrames	NumMarkers	Units	OrigDataRate	OrigDataStartFrame	OrigNumFrames
30.0	30.0	6	21	m	30.0	29	47
Frame#	Time	THUMB_TIP	THUMB_IP	THUMB_MCP	THUMB_CMC	INDEX_TIP	INDEX_DIP	INDEX_PIP	INDEX_MCP	MIDDLE_TIP	MIDDLE_DIP	MIDDLE_PIP	MIDDLE_MCP	RING_TIP	RING_DIP	RING_PIP	RING_MCP	PINKY_TIP	PINKY_DIP	PINKY_PIP	PINKY_MCP	WRIST
X1	Y1	Z1	X2	Y2	Z2	X3	Y3	Z3	X4	Y4	Z4	X5	Y5	Z5	X6	Y6	Z6	X7	Y7	Z7	X8	Y8	Z8	X9	Y9	Z9	X10	Y10	Z10	X11	Y11	Z11	X12	Y12	Z12	X13	Y13	Z13	X14	Y14	Z14	X15	Y15	Z15	X16	Y16	Z16	X17	Y17	Z17	X18	Y18	Z18	X19	Y19	Z19	X20	Y20	Z20	X21	Y21	Z21
28	0.9333333333333333	-0.04807770156860352	-0.10519100189208984	1.029699951171875	-0.048973499298095705	-0.07817759704589844	1.042300048828125	-0.06125370025634766	-0.05981600189208985	1.0671700439453125	-0.06410350036621094	-0.022765600204467773	1.0803900146484375	-0.044497001647949216	-0.031882999420166015	1.054780029296875	-0.03289609909057617	-0.035899200439453126	1.0368699951171876	-0.037717399597167967	-0.04362789916992187	1.0116400146484374	-0.08116190338134766	-0.04186920166015625	1.020989990234375	-0.04577949905395508	-0.01866110038757324	1.0536099853515626	-0.03195669937133789	-0.017464899063110353	1.038780029296875	-0.032781898498535154	-0.02073189926147461	1.0075399780273437	-0.0805	-0.01651300048828125	1.012969970703125	-0.04968399810791015	-0.002106290102005005	1.0553399658203124	-0.034724300384521484	0.0008484699726104731	1.0432099609375	-0.029311500549316406	0.002691879987716675	1.0140700073242188	-0.07627839660644531	0.008191340446472168	1.014239990234375	-0.05139479827880859	0.014308600425720215	1.04931005859375	-0.036413501739501954	0.018051000595092775	1.036050048828125	-0.03717050170898437	0.025225900650024415	1.0153099975585937	-0.07370040130615234	0.03165539932250976	1.0188800048828126	-0.09029299926757813	0.006018499851226807	1.0980899658203125
29	0.9666666666666667	-0.04598329925537109	-0.10457700347900391	1.0316199951171876	-0.04794129943847656	-0.07789949798583984	1.044550048828125	-0.06119889831542969	-0.060107200622558594	1.069280029296875	-0.06397109985351562	-0.023382299423217772	1.08218994140625	-0.03477030181884765	-0.03275569915771484	1.0548399658203125	-0.028120199203491212	-0.03835609817504883	1.0338900146484375	-0.038409400939941406	-0.0454630012512207	1.0104400024414062	-0.08084390258789062	-0.04250510025024414	1.023010009765625	-0.0398302001953125	-0.019685199737548828	1.054219970703125	-0.026830699920654295	-0.019475799560546875	1.0366600341796874	-0.03284970092773438	-0.022713600158691408	1.0062899780273438	-0.08012989807128906	-0.017130300521850585	1.0149099731445312	-0.04321009826660156	-0.002977869987487793	1.05647998046875	-0.028410900115966798	-0.000649519026279449	1.040780029296875	-0.029343700408935545	0.001212039947509765	1.01102001953125	-0.07609839630126954	0.00720074987411499	1.0157100219726563	-0.0450614013671875	0.012431099891662597	1.04772998046875	-0.03267890167236328	0.016941200256347655	1.0328499755859375	-0.03722930145263672	0.02479140090942383	1.013510009765625	-0.07306349945068359	0.030602800369262696	1.0203300170898437	-0.0914312973022461	0.005884580135345459	1.0996400146484375
30	1.0	-0.04312799835205078	-0.10362300109863282	1.0346500244140624	-0.04665280151367188	-0.07729830169677734	1.0478599853515624	-0.06102679824829101	-0.060126701354980466	1.0718699951171875	-0.06507230377197265	-0.02387080001831055	1.084949951171875	-0.021526500701904296	-0.036081100463867186	1.048530029296875	-0.023342899322509766	-0.04205630111694336	1.027739990234375	-0.04031650161743164	-0.04830709838867187	1.0081400146484376	-0.08072380065917968	-0.04320439910888672	1.025510009765625	-0.028876499176025392	-0.02168560028076172	1.0516800537109374	-0.020812700271606446	-0.022777000427246095	1.031489990234375	-0.03415459823608399	-0.025006399154663086	1.0041900024414063	-0.08004650115966797	-0.01793510055541992	1.0168699951171876	-0.029988199234008788	-0.004726659774780273	1.053030029296875	-0.020322599411010743	-0.0029686400890350344	1.0344000244140625	-0.030557600021362305	-0.0006155570149421691	1.006489990234375	-0.07596330261230469	0.006168200016021728	1.0174600219726562	-0.036911098480224606	0.010100500106811523	1.0454200439453125	-0.028660600662231445	0.015840399742126466	1.0297099609375	-0.03789339828491211	0.02452589988708496	1.0123099975585939	-0.07237090301513673	0.029537099838256836	1.0218099975585937	-0.09310230255126953	0.005922279834747315	1.101989990234375
31	1.0333333333333334	-0.039758598327636716	-0.10238600158691406	1.0385699462890625	-0.04538589859008789	-0.07682640075683594	1.052030029296875	-0.061430599212646486	-0.060332401275634766	1.075280029296875	-0.06734980010986329	-0.024262399673461915	1.088760009765625	-0.008955909729003906	-0.04169390106201172	1.03543994140625	-0.020638500213623047	-0.04723899841308594	1.0181500244140624	-0.04336909866333008	-0.05181940078735352	1.0055499877929688	-0.08042410278320312	-0.04403839874267578	1.0283399658203125	-0.018527099609375	-0.025868799209594725	1.0448800048828124	-0.016545299530029298	-0.02666189956665039	1.0238699951171875	-0.036197101593017575	-0.0273351993560791	1.0004099731445313	-0.07996949768066407	-0.018760799407958984	1.019530029296875	-0.016867399215698242	-0.006905139923095703	1.04522998046875	-0.014533900260925292	-0.004570340156555176	1.0245999755859374	-0.03258000183105469	-0.0019192899465560911	1.0013800048828125	-0.07534470367431641	0.005121009826660156	1.0194500122070314	-0.026850099563598632	0.008132719993591308	1.0407099609375	-0.02486940002441406	0.016103700637817384	1.0251099853515624	-0.03826200103759766	0.025075000762939455	1.010280029296875	-0.07093679809570312	0.02843630027770996	1.0236300048828124	-0.09511180114746094	0.006182059764862059	1.10468994140625
32	1.0666666666666667	-0.03688059997558594	-0.10093299865722656	1.0425999755859374	-0.044453601837158206	-0.07652220153808593	1.0561400146484374	-0.06223099899291992	-0.060612300872802734	1.078739990234375	-0.06951519775390624	-0.024534700393676757	1.0915899658203125	-0.003583440065383911	-0.048334999084472655	1.02425	-0.020530000686645507	-0.05189860153198242	1.0113400268554686	-0.045852901458740235	-0.05385530090332031	1.0046400146484376	-0.07952230072021485	-0.04470560073852539	1.03097998046875	-0.008767820358276368	-0.030430299758911133	1.0371300048828125	-0.013656399726867675	-0.02989850044250488	1.0157100219726563	-0.03815539932250977	-0.028379100799560547	0.9976719970703125	-0.07904319763183594	-0.019356800079345704	1.0224500122070312	-0.005249690055847168	-0.008535650253295899	1.0356099853515626	-0.010868000030517579	-0.004954150199890137	1.0138900146484375	-0.03448059844970703	-0.00168913996219635	0.9973259887695313	-0.07396050262451172	0.00420412015914917	1.0220399780273437	-0.018041900634765625	0.009484950065612794	1.032530029296875	-0.021976499557495116	0.018699600219726564	1.0180499877929687	-0.03890719985961914	0.02705900001525879	1.0075399780273437	-0.0684885025024414	0.02745599937438965	1.02593994140625	-0.09753359985351563	0.005997769832611084	1.1074000244140625
33	1.1	-0.03438610076904297	-0.09934729766845703	1.047010009765625	-0.04359560012817383	-0.07567510223388672	1.060530029296875	-0.06283810043334961	-0.06021319961547852	1.082489990234375	-0.07106420135498047	-0.024113700866699218	1.094800048828125	-0.001975579977035522	-0.05396480178833008	1.0131400146484375	-0.022413700103759766	-0.0554197998046875	1.005489990234375	-0.04827429962158203	-0.05501369857788086	1.0044099731445313	-0.07839739990234375	-0.044865898132324215	1.03372998046875	0.000222846001386642	-0.033480998992919925	1.025949951171875	-0.012410799980163574	-0.031428899765014645	1.0071199951171874	-0.040588699340820315	-0.02839030075073242	0.9958319702148437	-0.07781620025634765	-0.0196476993560791	1.02527001953125	0.0026473100185394277	-0.008836990356445312	1.0219500122070313	-0.01058650016784668	-0.004314809799194336	1.00402001953125	-0.03786750030517578	-0.0008625159859657281	0.9939000244140626	-0.0723646011352539	0.003712739944458008	1.0251300048828125	-0.013321700096130372	0.012149299621582031	1.0238599853515624	-0.02179990005493164	0.021799999237060545	1.0113900146484376	-0.04121210098266601	0.02912899971008301	1.0055900268554687	-0.06575029754638671	0.02686840057373047	1.0287099609375	-0.09993900299072266	0.0062956600189208985	1.1099200439453125
